<?xml version="1.0" standalone="no"?>
        <!DOCTYPE svg PUBLIC "-//W3C//DTD SVG 1.1//EN" 
        "http://www.w3.org/Graphics/SVG/1.1/DTD/svg11.dtd">  <svg xmlns="http://www.w3.org/2000/svg" xmlns:xlink="http://www.w3.org/1999/xlink" width="40" zoomAndPan="magnify" viewBox="0 0 30 30.000001" height="40" preserveAspectRatio="xMidYMid meet" version="1.0"><defs><clipPath id="id1"><path d="M 2.625 6.839844 L 26.574219 6.839844 L 26.574219 24.261719 L 2.625 24.261719 Z M 2.625 6.839844 " clip-rule="nonzero"/></clipPath><clipPath id="id2"><path d="M 2.625 12 L 26.574219 12 L 26.574219 19 L 2.625 19 Z M 2.625 12 " clip-rule="nonzero"/></clipPath><clipPath id="id3"><path d="M 2.625 6.839844 L 26.574219 6.839844 L 26.574219 13 L 2.625 13 Z M 2.625 6.839844 " clip-rule="nonzero"/></clipPath><clipPath id="id4"><path d="M 2.625 12 L 26.574219 12 L 26.574219 19 L 2.625 19 Z M 2.625 12 " clip-rule="nonzero"/></clipPath></defs><g clip-path="url(#id1)"><path fill="rgb(0%, 39.99939%, 0%)" d="M 26.5625 21.582031 C 26.5625 23.058594 25.375 24.261719 23.90625 24.261719 L 5.292969 24.261719 C 3.828125 24.261719 2.636719 23.058594 2.636719 21.582031 L 2.636719 9.519531 C 2.636719 8.039062 3.828125 6.839844 5.292969 6.839844 L 23.90625 6.839844 C 25.375 6.839844 26.5625 8.039062 26.5625 9.519531 Z M 26.5625 21.582031 " fill-opacity="1" fill-rule="nonzero"/></g><g clip-path="url(#id2)"><path fill="rgb(73.329163%, 8.628845%, 0%)" d="M 2.636719 12.199219 L 26.5625 12.199219 L 26.5625 18.902344 L 2.636719 18.902344 Z M 2.636719 12.199219 " fill-opacity="1" fill-rule="nonzero"/></g><g clip-path="url(#id3)"><path fill="rgb(7.839966%, 7.839966%, 7.839966%)" d="M 23.90625 6.839844 L 5.292969 6.839844 C 3.828125 6.839844 2.636719 8.039062 2.636719 9.519531 L 2.636719 12.199219 L 26.5625 12.199219 L 26.5625 9.519531 C 26.5625 8.039062 25.375 6.839844 23.90625 6.839844 Z M 23.90625 6.839844 " fill-opacity="1" fill-rule="nonzero"/></g><g clip-path="url(#id4)"><path fill="rgb(93.328857%, 93.328857%, 93.328857%)" d="M 2.636719 12.199219 L 26.5625 12.199219 L 26.5625 12.871094 L 2.636719 12.871094 Z M 2.636719 18.230469 L 26.5625 18.230469 L 26.5625 18.902344 L 2.636719 18.902344 Z M 2.636719 18.230469 " fill-opacity="1" fill-rule="nonzero"/></g><path fill="rgb(7.839966%, 7.839966%, 7.839966%)" d="M 17.960938 9.792969 C 17.914062 9.765625 17.835938 9.851562 17.429688 10.304688 C 17.289062 10.464844 17.109375 10.664062 16.910156 10.878906 C 16.503906 11.316406 16.082031 11.859375 16.390625 12.175781 L 11.558594 20.355469 C 11.554688 20.371094 11.546875 20.386719 11.5625 20.414062 C 11.59375 20.472656 11.695312 20.53125 11.757812 20.535156 L 11.761719 20.535156 C 11.789062 20.535156 11.804688 20.519531 11.8125 20.507812 L 16.644531 12.324219 C 17.058594 12.421875 17.324219 11.800781 17.511719 11.242188 C 17.605469 10.960938 17.691406 10.707031 17.765625 10.503906 C 17.964844 9.929688 18 9.816406 17.960938 9.792969 Z M 17.960938 9.792969 " fill-opacity="1" fill-rule="nonzero"/><path fill="rgb(100%, 100%, 100%)" d="M 17.460938 10.332031 C 17.316406 10.492188 17.136719 10.691406 16.9375 10.90625 C 16.351562 11.546875 16.191406 11.929688 16.429688 12.160156 L 16.441406 12.167969 L 11.59375 20.378906 C 11.589844 20.382812 11.59375 20.390625 11.597656 20.394531 C 11.621094 20.4375 11.710938 20.492188 11.757812 20.492188 L 11.761719 20.492188 C 11.765625 20.492188 11.773438 20.492188 11.777344 20.488281 L 16.617188 12.289062 L 16.625 12.277344 L 16.640625 12.28125 C 16.945312 12.367188 17.203125 12.042969 17.472656 11.226562 C 17.566406 10.949219 17.65625 10.695312 17.726562 10.488281 C 17.835938 10.171875 17.933594 9.894531 17.933594 9.832031 C 17.878906 9.859375 17.683594 10.078125 17.460938 10.332031 Z M 17.460938 10.332031 " fill-opacity="1" fill-rule="nonzero"/><path fill="rgb(7.839966%, 7.839966%, 7.839966%)" d="M 12.8125 12.175781 C 13.117188 11.859375 12.695312 11.316406 12.289062 10.878906 C 12.089844 10.664062 11.910156 10.464844 11.769531 10.304688 C 11.363281 9.851562 11.285156 9.765625 11.242188 9.792969 C 11.199219 9.816406 11.234375 9.929688 11.433594 10.503906 C 11.507812 10.707031 11.597656 10.960938 11.6875 11.242188 C 11.875 11.800781 12.140625 12.421875 12.554688 12.324219 L 17.386719 20.507812 C 17.394531 20.519531 17.410156 20.535156 17.441406 20.535156 C 17.503906 20.53125 17.605469 20.46875 17.636719 20.414062 C 17.652344 20.386719 17.644531 20.367188 17.640625 20.355469 Z M 12.8125 12.175781 " fill-opacity="1" fill-rule="nonzero"/><path fill="rgb(100%, 100%, 100%)" d="M 12.773438 12.160156 C 13.007812 11.929688 12.851562 11.546875 12.261719 10.90625 C 12.0625 10.691406 11.882812 10.492188 11.738281 10.332031 C 11.515625 10.078125 11.320312 9.859375 11.265625 9.832031 C 11.265625 9.894531 11.359375 10.171875 11.472656 10.492188 C 11.542969 10.695312 11.632812 10.949219 11.726562 11.226562 C 11.996094 12.042969 12.253906 12.367188 12.558594 12.28125 L 12.574219 12.277344 L 12.582031 12.289062 L 17.421875 20.488281 C 17.421875 20.492188 17.433594 20.492188 17.4375 20.492188 L 17.441406 20.492188 C 17.488281 20.492188 17.578125 20.441406 17.601562 20.398438 C 17.605469 20.390625 17.605469 20.382812 17.605469 20.378906 L 12.757812 12.171875 Z M 12.773438 12.160156 " fill-opacity="1" fill-rule="nonzero"/><path fill="rgb(7.839966%, 7.839966%, 7.839966%)" d="M 14.613281 10.496094 L 14.601562 10.488281 L 14.589844 10.496094 C 12.933594 11.75 12.125 13.398438 12.125 15.539062 C 12.125 17.675781 12.929688 19.324219 14.589844 20.578125 L 14.601562 20.585938 L 14.613281 20.578125 C 16.269531 19.324219 17.074219 17.675781 17.074219 15.539062 C 17.074219 13.398438 16.269531 11.75 14.613281 10.496094 Z M 14.613281 10.496094 " fill-opacity="1" fill-rule="nonzero"/><path fill="rgb(73.329163%, 8.628845%, 0%)" d="M 16.511719 12.910156 C 16.113281 11.996094 15.484375 11.207031 14.597656 10.539062 C 13.71875 11.207031 13.089844 11.996094 12.6875 12.90625 C 13.035156 13.695312 13.207031 14.558594 13.207031 15.542969 C 13.207031 16.527344 13.035156 17.386719 12.6875 18.175781 C 13.089844 19.082031 13.71875 19.871094 14.597656 20.539062 C 15.480469 19.867188 16.109375 19.082031 16.511719 18.171875 C 16.164062 17.382812 15.996094 16.523438 15.996094 15.542969 C 15.996094 14.5625 16.164062 13.703125 16.511719 12.910156 Z M 16.511719 12.910156 " fill-opacity="1" fill-rule="nonzero"/><path fill="rgb(100%, 100%, 100%)" d="M 14.601562 16.171875 C 14.804688 16.171875 14.96875 15.886719 14.96875 15.539062 C 14.96875 15.1875 14.804688 14.902344 14.601562 14.902344 C 14.398438 14.902344 14.230469 15.1875 14.230469 15.539062 C 14.230469 15.886719 14.398438 16.171875 14.601562 16.171875 Z M 14.445312 14.5 C 14.113281 14.003906 13.949219 13.375 13.949219 12.609375 C 13.949219 11.839844 14.113281 11.214844 14.445312 10.71875 Z M 14.753906 14.5 C 15.085938 14.003906 15.25 13.375 15.25 12.609375 C 15.25 11.839844 15.085938 11.214844 14.753906 10.71875 Z M 14.445312 16.574219 C 14.113281 17.070312 13.949219 17.699219 13.949219 18.464844 C 13.949219 19.234375 14.113281 19.859375 14.445312 20.355469 Z M 14.753906 16.574219 C 15.085938 17.070312 15.25 17.699219 15.25 18.464844 C 15.25 19.234375 15.085938 19.859375 14.753906 20.355469 Z M 14.753906 16.574219 " fill-opacity="1" fill-rule="nonzero"/></svg>  